<mxfile host="app.diagrams.net" modified="2021-09-12T05:59:28.670Z" agent="5.0 (Macintosh; Intel Mac OS X 10_15_7) AppleWebKit/605.1.15 (KHTML, like Gecko) Version/14.1.2 Safari/605.1.15" etag="9dFY4DnraXXbvD190qam" version="15.1.4" type="github">
  <diagram id="C5RBs43oDa-KdzZeNtuy" name="Page-1">
    <mxGraphModel dx="1413" dy="1185" grid="1" gridSize="10" guides="1" tooltips="1" connect="1" arrows="1" fold="1" page="1" pageScale="1" pageWidth="827" pageHeight="1169" math="0" shadow="0">
      <root>
        <mxCell id="WIyWlLk6GJQsqaUBKTNV-0" />
        <mxCell id="WIyWlLk6GJQsqaUBKTNV-1" parent="WIyWlLk6GJQsqaUBKTNV-0" />
        <mxCell id="zkfFHV4jXpPFQw0GAbJ--0" value="StockNews" style="swimlane;fontStyle=1;align=center;verticalAlign=top;childLayout=stackLayout;horizontal=1;startSize=26;horizontalStack=0;resizeParent=1;resizeLast=0;collapsible=1;marginBottom=0;rounded=0;shadow=0;strokeWidth=1;" parent="WIyWlLk6GJQsqaUBKTNV-1" vertex="1">
          <mxGeometry x="40" y="40" width="180" height="160" as="geometry">
            <mxRectangle x="230" y="140" width="160" height="26" as="alternateBounds" />
          </mxGeometry>
        </mxCell>
        <mxCell id="zkfFHV4jXpPFQw0GAbJ--1" value="Ticker: String" style="text;align=left;verticalAlign=top;spacingLeft=4;spacingRight=4;overflow=hidden;rotatable=0;points=[[0,0.5],[1,0.5]];portConstraint=eastwest;" parent="zkfFHV4jXpPFQw0GAbJ--0" vertex="1">
          <mxGeometry y="26" width="180" height="26" as="geometry" />
        </mxCell>
        <mxCell id="tc1t2i2jla_ty-zsbvFO-13" value="Source: String" style="text;align=left;verticalAlign=top;spacingLeft=4;spacingRight=4;overflow=hidden;rotatable=0;points=[[0,0.5],[1,0.5]];portConstraint=eastwest;" vertex="1" parent="zkfFHV4jXpPFQw0GAbJ--0">
          <mxGeometry y="52" width="180" height="26" as="geometry" />
        </mxCell>
        <mxCell id="zkfFHV4jXpPFQw0GAbJ--2" value="News: Map&lt;Date, List&lt;String&gt;&gt;" style="text;align=left;verticalAlign=top;spacingLeft=4;spacingRight=4;overflow=hidden;rotatable=0;points=[[0,0.5],[1,0.5]];portConstraint=eastwest;rounded=0;shadow=0;html=0;" parent="zkfFHV4jXpPFQw0GAbJ--0" vertex="1">
          <mxGeometry y="78" width="180" height="26" as="geometry" />
        </mxCell>
        <mxCell id="zkfFHV4jXpPFQw0GAbJ--4" value="" style="line;html=1;strokeWidth=1;align=left;verticalAlign=middle;spacingTop=-1;spacingLeft=3;spacingRight=3;rotatable=0;labelPosition=right;points=[];portConstraint=eastwest;" parent="zkfFHV4jXpPFQw0GAbJ--0" vertex="1">
          <mxGeometry y="104" width="180" height="8" as="geometry" />
        </mxCell>
        <mxCell id="zkfFHV4jXpPFQw0GAbJ--6" value="StockSentiment" style="swimlane;fontStyle=1;align=center;verticalAlign=top;childLayout=stackLayout;horizontal=1;startSize=26;horizontalStack=0;resizeParent=1;resizeLast=0;collapsible=1;marginBottom=0;rounded=0;shadow=0;strokeWidth=1;" parent="WIyWlLk6GJQsqaUBKTNV-1" vertex="1">
          <mxGeometry x="40" y="360" width="180" height="138" as="geometry">
            <mxRectangle x="130" y="380" width="160" height="26" as="alternateBounds" />
          </mxGeometry>
        </mxCell>
        <mxCell id="zkfFHV4jXpPFQw0GAbJ--7" value="Ticker: String&#xa;Source: String&#xa;Sentiment: Map&lt;Date, &#xa;            Map&lt;String, int[]&gt;&gt; &#xa;&#xa;&#xa;&#xa;&#xa;&#xa;" style="text;align=left;verticalAlign=top;spacingLeft=4;spacingRight=4;overflow=hidden;rotatable=0;points=[[0,0.5],[1,0.5]];portConstraint=eastwest;" parent="zkfFHV4jXpPFQw0GAbJ--6" vertex="1">
          <mxGeometry y="26" width="180" height="64" as="geometry" />
        </mxCell>
        <mxCell id="zkfFHV4jXpPFQw0GAbJ--9" value="" style="line;html=1;strokeWidth=1;align=left;verticalAlign=middle;spacingTop=-1;spacingLeft=3;spacingRight=3;rotatable=0;labelPosition=right;points=[];portConstraint=eastwest;" parent="zkfFHV4jXpPFQw0GAbJ--6" vertex="1">
          <mxGeometry y="90" width="180" height="8" as="geometry" />
        </mxCell>
        <mxCell id="zkfFHV4jXpPFQw0GAbJ--17" value="StockPrice" style="swimlane;fontStyle=1;align=center;verticalAlign=top;childLayout=stackLayout;horizontal=1;startSize=26;horizontalStack=0;resizeParent=1;resizeLast=0;collapsible=1;marginBottom=0;rounded=0;shadow=0;strokeWidth=1;" parent="WIyWlLk6GJQsqaUBKTNV-1" vertex="1">
          <mxGeometry x="680" y="40" width="202" height="160" as="geometry">
            <mxRectangle x="550" y="140" width="160" height="26" as="alternateBounds" />
          </mxGeometry>
        </mxCell>
        <mxCell id="zkfFHV4jXpPFQw0GAbJ--18" value="Ticker: String" style="text;align=left;verticalAlign=top;spacingLeft=4;spacingRight=4;overflow=hidden;rotatable=0;points=[[0,0.5],[1,0.5]];portConstraint=eastwest;" parent="zkfFHV4jXpPFQw0GAbJ--17" vertex="1">
          <mxGeometry y="26" width="202" height="26" as="geometry" />
        </mxCell>
        <mxCell id="zkfFHV4jXpPFQw0GAbJ--19" value="Price: Map&lt;Date, HistoricalQuote&gt;" style="text;align=left;verticalAlign=top;spacingLeft=4;spacingRight=4;overflow=hidden;rotatable=0;points=[[0,0.5],[1,0.5]];portConstraint=eastwest;rounded=0;shadow=0;html=0;" parent="zkfFHV4jXpPFQw0GAbJ--17" vertex="1">
          <mxGeometry y="52" width="202" height="26" as="geometry" />
        </mxCell>
        <mxCell id="zkfFHV4jXpPFQw0GAbJ--23" value="" style="line;html=1;strokeWidth=1;align=left;verticalAlign=middle;spacingTop=-1;spacingLeft=3;spacingRight=3;rotatable=0;labelPosition=right;points=[];portConstraint=eastwest;" parent="zkfFHV4jXpPFQw0GAbJ--17" vertex="1">
          <mxGeometry y="78" width="202" height="8" as="geometry" />
        </mxCell>
        <mxCell id="tc1t2i2jla_ty-zsbvFO-3" value="&lt;p style=&quot;margin: 0px ; font-stretch: normal ; font-size: 10px ; line-height: normal ; font-family: &amp;#34;menlo&amp;#34; ; color: rgb(128 , 128 , 128)&quot;&gt;&lt;br&gt;&lt;/p&gt;" style="text;html=1;strokeColor=none;fillColor=none;align=center;verticalAlign=middle;whiteSpace=wrap;rounded=0;fontSize=10;" vertex="1" parent="WIyWlLk6GJQsqaUBKTNV-1">
          <mxGeometry x="360" y="400" width="330" as="geometry" />
        </mxCell>
        <mxCell id="tc1t2i2jla_ty-zsbvFO-4" value="&lt;font color=&quot;#808080&quot;&gt;APPL&lt;/font&gt;" style="text;html=1;strokeColor=none;fillColor=none;align=center;verticalAlign=middle;whiteSpace=wrap;rounded=0;fontSize=10;" vertex="1" parent="WIyWlLk6GJQsqaUBKTNV-1">
          <mxGeometry x="220" y="385" width="40" height="20" as="geometry" />
        </mxCell>
        <mxCell id="tc1t2i2jla_ty-zsbvFO-5" value="&lt;font color=&quot;#808080&quot;&gt;APPL&lt;/font&gt;" style="text;html=1;strokeColor=none;fillColor=none;align=center;verticalAlign=middle;whiteSpace=wrap;rounded=0;fontSize=10;" vertex="1" parent="WIyWlLk6GJQsqaUBKTNV-1">
          <mxGeometry x="890" y="70" width="40" height="20" as="geometry" />
        </mxCell>
        <mxCell id="tc1t2i2jla_ty-zsbvFO-6" value="&lt;font color=&quot;#808080&quot;&gt;APPL&lt;/font&gt;" style="text;html=1;strokeColor=none;fillColor=none;align=center;verticalAlign=middle;whiteSpace=wrap;rounded=0;fontSize=10;" vertex="1" parent="WIyWlLk6GJQsqaUBKTNV-1">
          <mxGeometry x="220" y="70" width="40" height="20" as="geometry" />
        </mxCell>
        <mxCell id="tc1t2i2jla_ty-zsbvFO-8" value="&lt;p style=&quot;text-align: left ; margin: 0px ; font-stretch: normal ; font-size: 10px ; line-height: normal ; font-family: &amp;#34;menlo&amp;#34; ; color: rgb(128 , 128 , 128)&quot;&gt;{&amp;nbsp;&lt;/p&gt;&lt;p style=&quot;text-align: right ; margin: 0px ; font-stretch: normal ; font-size: 10px ; line-height: normal ; font-family: &amp;#34;menlo&amp;#34; ; color: rgb(128 , 128 , 128)&quot;&gt;&lt;b&gt;9/10&lt;/b&gt;: {&lt;b&gt;open&lt;/b&gt;: $12.41,&lt;/p&gt;&lt;p style=&quot;text-align: right ; margin: 0px ; font-stretch: normal ; font-size: 10px ; line-height: normal ; font-family: &amp;#34;menlo&amp;#34; ; color: rgb(128 , 128 , 128)&quot;&gt;&lt;span&gt;&lt;b&gt; close&lt;/b&gt;: $14.21,&lt;/span&gt;&lt;/p&gt;&lt;p style=&quot;text-align: right ; margin: 0px ; font-stretch: normal ; font-size: 10px ; line-height: normal ; font-family: &amp;#34;menlo&amp;#34; ; color: rgb(128 , 128 , 128)&quot;&gt;&lt;span&gt;&lt;b&gt; high&lt;/b&gt;: $15.11,&lt;/span&gt;&lt;/p&gt;&lt;p style=&quot;text-align: right ; margin: 0px ; font-stretch: normal ; font-size: 10px ; line-height: normal ; font-family: &amp;#34;menlo&amp;#34; ; color: rgb(128 , 128 , 128)&quot;&gt;&lt;span&gt;&lt;b&gt; low&lt;/b&gt;: $12.12},&amp;nbsp;&lt;/span&gt;&lt;/p&gt;&lt;p style=&quot;text-align: right ; margin: 0px ; font-stretch: normal ; font-size: 10px ; line-height: normal ; font-family: &amp;#34;menlo&amp;#34; ; color: rgb(128 , 128 , 128)&quot;&gt;&lt;span&gt;&lt;br&gt;&lt;/span&gt;&lt;/p&gt;&lt;p style=&quot;text-align: right ; margin: 0px ; font-stretch: normal ; line-height: normal ; font-family: &amp;#34;menlo&amp;#34; ; color: rgb(128 , 128 , 128)&quot;&gt;&lt;b&gt;9/11&lt;/b&gt;: {&lt;b&gt;open&lt;/b&gt;: $13.41,&lt;/p&gt;&lt;p style=&quot;text-align: right ; margin: 0px ; font-stretch: normal ; line-height: normal ; font-family: &amp;#34;menlo&amp;#34; ; color: rgb(128 , 128 , 128)&quot;&gt;&lt;span&gt;&lt;b&gt; close&lt;/b&gt;: $15.21,&lt;/span&gt;&lt;/p&gt;&lt;p style=&quot;text-align: right ; margin: 0px ; font-stretch: normal ; line-height: normal ; font-family: &amp;#34;menlo&amp;#34; ; color: rgb(128 , 128 , 128)&quot;&gt;&lt;span&gt;&lt;b&gt; high&lt;/b&gt;: $16.11,&lt;/span&gt;&lt;/p&gt;&lt;p style=&quot;text-align: right ; margin: 0px ; font-stretch: normal ; font-size: 10px ; line-height: normal ; font-family: &amp;#34;menlo&amp;#34; ; color: rgb(128 , 128 , 128)&quot;&gt;&lt;b&gt; low&lt;/b&gt;: $13.12},&lt;/p&gt;&lt;p style=&quot;text-align: right ; margin: 0px ; font-stretch: normal ; font-size: 10px ; line-height: normal ; font-family: &amp;#34;menlo&amp;#34; ; color: rgb(128 , 128 , 128)&quot;&gt;&lt;span&gt;&lt;br&gt;&lt;/span&gt;&lt;/p&gt;&lt;p style=&quot;text-align: right ; margin: 0px ; font-stretch: normal ; line-height: normal ; font-family: &amp;#34;menlo&amp;#34; ; color: rgb(128 , 128 , 128)&quot;&gt;&lt;b&gt;9/12&lt;/b&gt;: {&lt;b&gt;open&lt;/b&gt;: $14.41,&lt;/p&gt;&lt;p style=&quot;text-align: right ; margin: 0px ; font-stretch: normal ; line-height: normal ; font-family: &amp;#34;menlo&amp;#34; ; color: rgb(128 , 128 , 128)&quot;&gt;&lt;span&gt;&lt;b&gt; close&lt;/b&gt;: $16.21,&lt;/span&gt;&lt;/p&gt;&lt;p style=&quot;text-align: right ; margin: 0px ; font-stretch: normal ; line-height: normal ; font-family: &amp;#34;menlo&amp;#34; ; color: rgb(128 , 128 , 128)&quot;&gt;&lt;span&gt;&lt;b&gt; high&lt;/b&gt;: $17.11,&lt;/span&gt;&lt;/p&gt;&lt;p style=&quot;text-align: right ; margin: 0px ; font-stretch: normal ; font-size: 10px ; line-height: normal ; font-family: &amp;#34;menlo&amp;#34; ; color: rgb(128 , 128 , 128)&quot;&gt;&lt;b&gt; low&lt;/b&gt;: $13.12}&lt;span style=&quot;text-align: right&quot;&gt;&amp;nbsp;&lt;/span&gt;&lt;/p&gt;&lt;p style=&quot;text-align: left ; margin: 0px ; font-stretch: normal ; font-size: 10px ; line-height: normal ; font-family: &amp;#34;menlo&amp;#34; ; color: rgb(128 , 128 , 128)&quot;&gt;&lt;span style=&quot;text-align: right&quot;&gt;}&lt;/span&gt;&lt;/p&gt;&lt;p&gt;&lt;/p&gt;" style="text;html=1;strokeColor=none;fillColor=none;align=center;verticalAlign=middle;whiteSpace=wrap;rounded=0;fontSize=10;" vertex="1" parent="WIyWlLk6GJQsqaUBKTNV-1">
          <mxGeometry x="890" y="80" width="140" height="210" as="geometry" />
        </mxCell>
        <mxCell id="tc1t2i2jla_ty-zsbvFO-9" value="&lt;p style=&quot;text-align: left ; margin: 0px ; font-stretch: normal ; font-size: 10px ; line-height: normal ; font-family: &amp;#34;menlo&amp;#34; ; color: rgb(128 , 128 , 128)&quot;&gt;{&amp;nbsp;&lt;/p&gt;&lt;p style=&quot;text-align: right ; margin: 0px ; font-stretch: normal ; font-size: 10px ; line-height: normal ; font-family: &amp;#34;menlo&amp;#34; ; color: rgb(128 , 128 , 128)&quot;&gt;&lt;b&gt;9/10&lt;/b&gt;: [&quot;New iPhone X ready&quot;,&lt;/p&gt;&lt;span style=&quot;text-align: right&quot;&gt;&lt;font color=&quot;#808080&quot; face=&quot;menlo&quot;&gt;&quot;&lt;span&gt;iPhone&lt;/span&gt;&amp;nbsp;colors release&quot;,&lt;/font&gt;&lt;br&gt;&lt;/span&gt;&lt;span style=&quot;text-align: right&quot;&gt;&lt;font color=&quot;#808080&quot; face=&quot;menlo&quot;&gt;&quot;Anticipation for&amp;nbsp;&lt;span&gt;iPhone&lt;/span&gt;&amp;nbsp;X&quot;]&lt;/font&gt;&lt;/span&gt;&lt;span style=&quot;color: rgb(128 , 128 , 128) ; font-family: &amp;#34;menlo&amp;#34; ; text-align: right&quot;&gt;&lt;br&gt;&lt;/span&gt;&lt;p style=&quot;text-align: right ; margin: 0px ; font-stretch: normal ; font-size: 10px ; line-height: normal ; font-family: &amp;#34;menlo&amp;#34; ; color: rgb(128 , 128 , 128)&quot;&gt;&amp;nbsp;&lt;/p&gt;&lt;p style=&quot;text-align: right ; margin: 0px ; font-stretch: normal ; font-size: 10px ; line-height: normal ; font-family: &amp;#34;menlo&amp;#34; ; color: rgb(128 , 128 , 128)&quot;&gt;&lt;span&gt;&lt;br&gt;&lt;/span&gt;&lt;/p&gt;&lt;p style=&quot;text-align: right ; margin: 0px ; font-stretch: normal ; line-height: normal ; font-family: &amp;#34;menlo&amp;#34; ; color: rgb(128 , 128 , 128)&quot;&gt;&lt;b&gt;9/11&lt;/b&gt;: [&quot;iPhone emojis added&quot;,&lt;/p&gt;&lt;span style=&quot;text-align: right&quot;&gt;&lt;font color=&quot;#808080&quot; face=&quot;menlo&quot;&gt;&quot;&lt;span&gt;iPhone X&lt;/span&gt;&amp;nbsp;new color way&quot;,&lt;/font&gt;&lt;br&gt;&lt;/span&gt;&lt;span style=&quot;text-align: right&quot;&gt;&lt;font color=&quot;#808080&quot; face=&quot;menlo&quot;&gt;&quot;IGlasses pair with&amp;nbsp;&lt;span&gt;iPhone&lt;/span&gt;&amp;nbsp;X&quot;]&lt;/font&gt;&lt;/span&gt;&lt;span style=&quot;color: rgb(128 , 128 , 128) ; font-family: &amp;#34;menlo&amp;#34; ; text-align: right&quot;&gt;&lt;br&gt;&lt;/span&gt;&lt;p style=&quot;text-align: right ; margin: 0px ; font-stretch: normal ; font-size: 10px ; line-height: normal ; font-family: &amp;#34;menlo&amp;#34; ; color: rgb(128 , 128 , 128)&quot;&gt;,&lt;/p&gt;&lt;p style=&quot;text-align: right ; margin: 0px ; font-stretch: normal ; font-size: 10px ; line-height: normal ; font-family: &amp;#34;menlo&amp;#34; ; color: rgb(128 , 128 , 128)&quot;&gt;&lt;span&gt;&lt;br&gt;&lt;/span&gt;&lt;/p&gt;&lt;p style=&quot;text-align: right ; margin: 0px ; font-stretch: normal ; line-height: normal ; font-family: &amp;#34;menlo&amp;#34; ; color: rgb(128 , 128 , 128)&quot;&gt;&lt;b&gt;9/12&lt;/b&gt;: [&quot;iPhone X-1 bug patch&quot;,&lt;/p&gt;&lt;span style=&quot;color: rgb(128 , 128 , 128) ; font-family: &amp;#34;menlo&amp;#34; ; text-align: right&quot;&gt;&quot;New iPhone X features&quot;,&lt;br&gt;&lt;/span&gt;&lt;span style=&quot;color: rgb(128 , 128 , 128) ; font-family: &amp;#34;menlo&amp;#34; ; text-align: right&quot;&gt;&quot;New iPhone 6 Cameras&quot;]&lt;/span&gt;&lt;span style=&quot;color: rgb(128 , 128 , 128) ; font-family: &amp;#34;menlo&amp;#34; ; text-align: right&quot;&gt;&lt;br&gt;&lt;/span&gt;&lt;p style=&quot;text-align: right ; margin: 0px ; font-stretch: normal ; font-size: 10px ; line-height: normal ; font-family: &amp;#34;menlo&amp;#34; ; color: rgb(128 , 128 , 128)&quot;&gt;&lt;span style=&quot;text-align: right&quot;&gt;&amp;nbsp;&lt;/span&gt;&lt;/p&gt;&lt;p style=&quot;text-align: left ; margin: 0px ; font-stretch: normal ; font-size: 10px ; line-height: normal ; font-family: &amp;#34;menlo&amp;#34; ; color: rgb(128 , 128 , 128)&quot;&gt;&lt;span style=&quot;text-align: right&quot;&gt;}&lt;/span&gt;&lt;/p&gt;&lt;p&gt;&lt;/p&gt;" style="text;html=1;strokeColor=none;fillColor=none;align=center;verticalAlign=middle;whiteSpace=wrap;rounded=0;fontSize=10;" vertex="1" parent="WIyWlLk6GJQsqaUBKTNV-1">
          <mxGeometry x="210" y="120" width="216" height="210" as="geometry" />
        </mxCell>
        <mxCell id="tc1t2i2jla_ty-zsbvFO-12" value="&lt;p style=&quot;text-align: left ; margin: 0px ; font-stretch: normal ; font-size: 10px ; line-height: normal ; font-family: &amp;#34;menlo&amp;#34; ; color: rgb(128 , 128 , 128)&quot;&gt;{&amp;nbsp;&lt;/p&gt;&lt;p style=&quot;text-align: right ; margin: 0px ; font-stretch: normal ; font-size: 10px ; line-height: normal ; font-family: &amp;#34;menlo&amp;#34; ; color: rgb(128 , 128 , 128)&quot;&gt;&lt;b&gt;9/10&lt;/b&gt;: {&lt;b&gt;positive&lt;/b&gt;: .8,&lt;/p&gt;&lt;p style=&quot;text-align: right ; margin: 0px ; font-stretch: normal ; font-size: 10px ; line-height: normal ; font-family: &amp;#34;menlo&amp;#34; ; color: rgb(128 , 128 , 128)&quot;&gt;&lt;span&gt;&lt;b&gt; mixed&lt;/b&gt;: .1,&lt;/span&gt;&lt;/p&gt;&lt;p style=&quot;text-align: right ; margin: 0px ; font-stretch: normal ; font-size: 10px ; line-height: normal ; font-family: &amp;#34;menlo&amp;#34; ; color: rgb(128 , 128 , 128)&quot;&gt;&lt;span&gt;&lt;b&gt; negative&lt;/b&gt;: .1&lt;/span&gt;},&amp;nbsp;&lt;/p&gt;&lt;p style=&quot;text-align: right ; margin: 0px ; font-stretch: normal ; font-size: 10px ; line-height: normal ; font-family: &amp;#34;menlo&amp;#34; ; color: rgb(128 , 128 , 128)&quot;&gt;&lt;span&gt;&lt;br&gt;&lt;/span&gt;&lt;/p&gt;&lt;p style=&quot;text-align: right ; margin: 0px ; font-stretch: normal ; line-height: normal ; font-family: &amp;#34;menlo&amp;#34; ; color: rgb(128 , 128 , 128)&quot;&gt;&lt;b&gt;9/11&lt;/b&gt;: {&lt;b&gt;positive&lt;/b&gt;: .6,&lt;/p&gt;&lt;p style=&quot;text-align: right ; margin: 0px ; font-stretch: normal ; line-height: normal ; font-family: &amp;#34;menlo&amp;#34; ; color: rgb(128 , 128 , 128)&quot;&gt;&lt;b&gt;mixed&lt;/b&gt;: .3,&lt;/p&gt;&lt;p style=&quot;text-align: right ; margin: 0px ; font-stretch: normal ; font-size: 10px ; line-height: normal ; font-family: &amp;#34;menlo&amp;#34; ; color: rgb(128 , 128 , 128)&quot;&gt;&lt;b&gt;negative&lt;/b&gt;: .1},&lt;/p&gt;&lt;p style=&quot;text-align: right ; margin: 0px ; font-stretch: normal ; font-size: 10px ; line-height: normal ; font-family: &amp;#34;menlo&amp;#34; ; color: rgb(128 , 128 , 128)&quot;&gt;&lt;span&gt;&lt;br&gt;&lt;/span&gt;&lt;/p&gt;&lt;p style=&quot;text-align: right ; margin: 0px ; font-stretch: normal ; line-height: normal ; font-family: &amp;#34;menlo&amp;#34; ; color: rgb(128 , 128 , 128)&quot;&gt;&lt;b&gt;9/12&lt;/b&gt;: {&lt;b&gt;positive&lt;/b&gt;: .2,&lt;/p&gt;&lt;p style=&quot;text-align: right ; margin: 0px ; font-stretch: normal ; line-height: normal ; font-family: &amp;#34;menlo&amp;#34; ; color: rgb(128 , 128 , 128)&quot;&gt;&lt;b&gt;mixed&lt;/b&gt;: .3,&lt;/p&gt;&lt;p style=&quot;text-align: right ; margin: 0px ; font-stretch: normal ; font-size: 10px ; line-height: normal ; font-family: &amp;#34;menlo&amp;#34; ; color: rgb(128 , 128 , 128)&quot;&gt;&lt;b&gt;negative&lt;/b&gt;: .5}&lt;span style=&quot;text-align: right&quot;&gt;&amp;nbsp;&lt;/span&gt;&lt;/p&gt;&lt;p style=&quot;text-align: left ; margin: 0px ; font-stretch: normal ; font-size: 10px ; line-height: normal ; font-family: &amp;#34;menlo&amp;#34; ; color: rgb(128 , 128 , 128)&quot;&gt;&lt;span style=&quot;text-align: right&quot;&gt;}&lt;/span&gt;&lt;/p&gt;&lt;p&gt;&lt;/p&gt;" style="text;html=1;strokeColor=none;fillColor=none;align=center;verticalAlign=middle;whiteSpace=wrap;rounded=0;fontSize=10;" vertex="1" parent="WIyWlLk6GJQsqaUBKTNV-1">
          <mxGeometry x="220" y="420" width="140" height="190" as="geometry" />
        </mxCell>
        <mxCell id="tc1t2i2jla_ty-zsbvFO-14" value="&lt;font color=&quot;#808080&quot;&gt;Twtter&lt;/font&gt;" style="text;html=1;strokeColor=none;fillColor=none;align=center;verticalAlign=middle;whiteSpace=wrap;rounded=0;fontSize=10;" vertex="1" parent="WIyWlLk6GJQsqaUBKTNV-1">
          <mxGeometry x="220" y="90" width="40" height="20" as="geometry" />
        </mxCell>
        <mxCell id="tc1t2i2jla_ty-zsbvFO-15" value="&lt;font color=&quot;#808080&quot;&gt;Twtter&lt;/font&gt;" style="text;html=1;strokeColor=none;fillColor=none;align=center;verticalAlign=middle;whiteSpace=wrap;rounded=0;fontSize=10;" vertex="1" parent="WIyWlLk6GJQsqaUBKTNV-1">
          <mxGeometry x="220" y="405" width="40" height="20" as="geometry" />
        </mxCell>
      </root>
    </mxGraphModel>
  </diagram>
</mxfile>
